HIERARCHY
ROOT SpineBase
{
  OFFSET 0.000000 0.000000 0.000000
  CHANNELS 6 Xposition Yposition Zposition Zrotation Xrotation Yrotation
  JOINT SpineMid
  {
    OFFSET 0.000000 26.458422 0.000000
    CHANNELS 3 Zrotation Xrotation Yrotation
    JOINT SpineShoulder
    {
      OFFSET -0.013274 19.707384 -0.631717
      CHANNELS 3 Zrotation Xrotation Yrotation
      JOINT Neck
      {
        OFFSET -0.019792 6.538794 -0.490686
        CHANNELS 3 Zrotation Xrotation Yrotation
        JOINT Head
        {
          OFFSET -3.086383 11.682852 0.592221
          CHANNELS 3 Zrotation Xrotation Yrotation
          End Site
          {
            OFFSET 0 0 0
          }
        }
      }
      JOINT ShoulderLeft
      {
        OFFSET -12.054717 -3.372822 5.236840
        CHANNELS 3 Zrotation Xrotation Yrotation
        JOINT ElbowLeft
        {
          OFFSET -1.690504 -24.662771 2.441927
          CHANNELS 3 Zrotation Xrotation Yrotation
          JOINT WristLeft
          {
            OFFSET 0.399198 -21.191263 -5.259436
            CHANNELS 3 Zrotation Xrotation Yrotation
            JOINT HandLeft
            {
              OFFSET 0.444803 -3.979946 -0.757284
              CHANNELS 3 Zrotation Xrotation Yrotation
              JOINT HandTipLeft
              {
                OFFSET 0.590107 -6.226690 -0.426667
                CHANNELS 3 Zrotation Xrotation Yrotation
                End Site
                {
                  OFFSET 0 0 0
                }
              }
              JOINT ThumbLeft
              {
                OFFSET 3.143088 -0.388287 -4.086995
                CHANNELS 3 Zrotation Xrotation Yrotation
                End Site
                {
                  OFFSET 0 0 0
                }
              }
            }
          }
        }
      }
      JOINT ShoulderRight
      {
        OFFSET 11.794651 -1.859432 -6.678206
        CHANNELS 3 Zrotation Xrotation Yrotation
        JOINT ElbowRight
        {
          OFFSET 5.091638 -22.913178 -2.678454
          CHANNELS 3 Zrotation Xrotation Yrotation
          JOINT WristRight
          {
            OFFSET -0.033931 -21.560967 -6.997616
            CHANNELS 3 Zrotation Xrotation Yrotation
            JOINT HandRight
            {
              OFFSET -1.066058 -5.440113 -0.198149
              CHANNELS 3 Zrotation Xrotation Yrotation
              JOINT HandTipRight
              {
                OFFSET -0.013623 -5.860368 -1.534986
                CHANNELS 3 Zrotation Xrotation Yrotation
                End Site
                {
                  OFFSET 0 0 0
                }
              }
              JOINT ThumbRight
              {
                OFFSET 1.901650 -0.317277 -2.288408
                CHANNELS 3 Zrotation Xrotation Yrotation
                End Site
                {
                  OFFSET 0 0 0
                }
              }
            }
          }
        }
      }
    }
  }
  JOINT HipLeft
  {
    OFFSET -5.318999 0.299249 -0.862064
    CHANNELS 3 Zrotation Xrotation Yrotation
    JOINT KneeLeft
    {
      OFFSET 7.702826 -32.487129 4.145043
      CHANNELS 3 Zrotation Xrotation Yrotation
      JOINT AnkleLeft
      {
        OFFSET 11.625260 -31.879584 5.567320
        CHANNELS 3 Zrotation Xrotation Yrotation
        JOINT FootLeft
        {
          OFFSET -2.703812 -4.502214 -7.435168
          CHANNELS 3 Zrotation Xrotation Yrotation
          End Site
          {
            OFFSET 0 0 0
          }
        }
      }
    }
  }
  JOINT HipRight
  {
    OFFSET 5.041667 1.089365 -5.131636
    CHANNELS 3 Zrotation Xrotation Yrotation
    JOINT KneeRight
    {
      OFFSET 9.191333 -32.888104 1.861870
      CHANNELS 3 Zrotation Xrotation Yrotation
      JOINT AnkleRight
      {
        OFFSET 4.619119 -29.586895 7.469205
        CHANNELS 3 Zrotation Xrotation Yrotation
        JOINT FootRight
        {
          OFFSET -3.761065 -3.080266 -10.494392
          CHANNELS 3 Zrotation Xrotation Yrotation
          End Site
          {
            OFFSET 0 0 0
          }
        }
      }
    }
  }
}
MOTION
Frames: 13
Frame Time: 0.033333
18.209711 70.669799 364.069458 -0.000000 0.000000 22.396286 -0.000000 0.000000 -22.396286 -0.000000 0.000000 0.000000 -0.000000 0.000000 0.000000 0.000000 0.000000 0.000000 -0.000000 0.000000 0.000000 -0.000000 0.000000 0.000000 -0.000000 0.000000 0.000000 -0.000000 0.000000 0.000000 0.000000 0.000000 0.000000 0.000000 0.000000 0.000000 -0.000000 0.000000 0.000000 -0.000000 0.000000 0.000000 -0.000000 0.000000 0.000000 -0.000000 0.000000 0.000000 0.000000 0.000000 0.000000 0.000000 0.000000 0.000000 -0.000000 0.000000 -22.396286 -0.000000 0.000000 0.000000 -0.000000 0.000000 0.000000 0.000000 0.000000 0.000000 -0.000000 0.000000 -22.396286 -0.000000 0.000000 0.000000 -0.000000 0.000000 0.000000 0.000000 0.000000 0.000000
18.196202 70.667509 364.174329 -0.064724 -0.102348 22.412343 0.098857 0.069940 -22.412461 -0.000000 0.000000 0.000000 -0.000000 0.000000 0.000000 0.000000 0.000000 0.000000 -0.000000 0.000000 0.000000 -0.000000 0.000000 0.000000 -0.000000 0.000000 0.000000 3.716573 1.713633 -0.147342 0.000000 0.000000 0.000000 0.000000 0.000000 0.000000 -0.000000 0.000000 0.000000 -0.000000 0.000000 0.000000 0.917129 0.085125 -0.050847 -2.016973 -1.800003 0.324916 0.000000 0.000000 0.000000 0.000000 0.000000 0.000000 0.098857 0.069940 -22.412461 -0.000000 0.000000 0.000000 -1.493383 4.126593 0.038305 0.000000 0.000000 0.000000 0.098857 0.069940 -22.412461 -0.000000 0.000000 0.000000 -0.000000 0.000000 0.000000 0.000000 0.000000 0.000000
18.193058 70.666595 364.268834 -0.112942 -0.193795 22.442511 0.178371 0.136001 -22.442913 -0.000000 0.000000 0.000000 -0.000000 0.000000 0.000000 0.000000 0.000000 0.000000 -0.000000 0.000000 0.000000 -0.000000 0.000000 0.000000 -0.000000 0.000000 0.000000 6.668273 2.980123 -0.346075 0.000000 0.000000 0.000000 0.000000 0.000000 0.000000 -0.000000 0.000000 0.000000 -0.000000 0.000000 0.000000 1.689834 0.214504 -0.107055 -3.728771 -3.282148 0.584424 0.000000 0.000000 0.000000 0.000000 0.000000 0.000000 0.178371 0.136001 -22.442913 -0.000000 0.000000 0.000000 -2.649523 7.278164 0.150202 0.000000 0.000000 0.000000 0.178371 0.136001 -22.442913 -0.000000 0.000000 0.000000 -0.000000 0.000000 0.000000 0.000000 0.000000 0.000000
18.200280 70.667057 364.352976 -0.144673 -0.274366 22.486806 0.238612 0.198171 -22.487565 -0.000000 0.000000 0.000000 -0.000000 0.000000 0.000000 0.000000 0.000000 0.000000 -0.000000 0.000000 0.000000 -0.385910 -0.772740 0.078756 -0.278753 1.369905 0.121925 9.522952 3.182812 -0.632154 0.000000 0.000000 0.000000 0.000000 0.000000 0.000000 -0.000000 0.000000 0.000000 -0.000000 0.000000 0.000000 2.320216 0.388417 -0.169154 -5.138847 -4.437749 0.790885 0.000000 0.000000 0.000000 0.000000 0.000000 0.000000 0.238612 0.198171 -22.487565 -0.000000 0.000000 0.000000 -3.540419 9.657173 0.288797 0.000000 0.000000 0.000000 0.238612 0.198171 -22.487565 -0.000000 0.000000 0.000000 -0.000000 0.000000 0.000000 0.000000 0.000000 0.000000
18.217866 70.668894 364.426752 -0.159931 -0.344080 22.545258 0.279635 0.256462 -22.546364 -0.000000 0.000000 0.000000 -0.000000 0.000000 0.000000 0.000000 0.000000 0.000000 0.697452 0.664403 0.019491 -1.179914 -1.590530 0.065216 -0.550926 1.762172 0.208246 11.318812 3.321710 -0.806711 0.000000 0.000000 0.000000 0.000000 0.000000 0.000000 -0.000000 0.000000 0.000000 -0.000000 0.000000 0.000000 2.809913 0.607401 -0.237389 -6.250245 -5.262077 0.955142 0.000000 0.000000 0.000000 0.000000 0.000000 0.000000 0.279635 0.256462 -22.546364 -0.000000 0.000000 0.000000 -4.215252 11.413122 0.428678 0.000000 0.000000 0.000000 0.279635 0.256462 -22.546364 -0.823888 -0.470553 -0.284864 0.821567 0.474595 0.278078 0.000000 0.000000 0.000000
18.245818 70.672108 364.490164 -0.158719 -0.402952 22.617904 0.301485 0.310917 -22.619280 -0.000000 0.000000 0.000000 -0.000000 0.000000 0.000000 0.000000 0.000000 0.000000 0.825910 0.754295 0.024665 -1.388466 -1.782793 0.072215 -0.896493 2.118932 0.314404 12.425864 3.024373 -0.919260 0.000000 0.000000 0.000000 0.000000 0.000000 0.000000 -0.000000 0.000000 0.000000 -0.000000 0.000000 0.000000 3.159994 0.872268 -0.311721 -7.065143 -5.752661 1.086247 0.000000 0.000000 0.000000 0.000000 0.000000 0.000000 0.301485 0.310917 -22.619280 -0.000000 0.000000 0.000000 -4.707614 12.651898 0.556217 0.000000 0.000000 0.000000 0.301485 0.310917 -22.619280 -0.958133 -0.524471 -0.328201 0.955154 0.529878 0.319399 0.000000 0.000000 0.000000
18.276180 70.688717 364.552782 -0.160367 -0.468132 22.776774 0.329101 0.369539 -22.778490 -0.000000 0.000000 0.000000 -0.000000 0.000000 0.000000 0.000000 0.000000 0.000000 1.010614 0.914336 0.029369 -1.646816 -2.068463 0.073990 -1.822877 2.744051 0.586794 13.688137 1.827927 -1.060367 0.000000 0.000000 0.000000 0.000000 0.000000 0.000000 0.469379 -0.741232 -0.216514 -0.472216 0.739428 0.222597 3.190317 1.411191 -0.434261 -6.847293 -4.753842 1.135755 0.000000 0.000000 0.000000 0.000000 0.000000 0.000000 0.792199 1.272483 -22.535114 -0.081715 -1.011457 -0.250733 -5.781182 15.414724 0.817411 0.000000 0.000000 0.000000 0.329101 0.369539 -22.778490 -1.038725 -0.554641 -0.353920 1.035328 0.560955 0.343823 0.000000 0.000000 0.000000
18.325218 70.694773 364.603348 -0.136857 -0.512607 22.922929 0.325714 0.418817 -22.924732 -0.000000 0.000000 0.000000 -0.000000 0.000000 0.000000 0.000000 0.000000 0.000000 1.142554 1.022162 0.032925 -1.814334 -2.155370 0.073263 -2.296899 3.312555 0.771355 14.239781 1.396065 -1.083590 0.000000 0.000000 0.000000 0.000000 0.000000 0.000000 0.529847 -0.808001 -0.237705 -0.533247 0.805761 0.245191 3.365997 1.912467 -0.556503 -6.791089 -4.920180 1.155521 0.000000 0.000000 0.000000 0.000000 0.000000 0.000000 0.874976 1.511828 -22.634004 -0.887839 -1.688907 -0.633807 -4.342004 13.596738 1.187757 0.000000 0.000000 0.000000 0.325714 0.418817 -22.924732 -1.138320 -0.541819 -0.377484 1.134778 0.549200 0.366662 0.000000 0.000000 0.000000
18.384606 70.692356 364.630155 -0.090724 -0.524734 22.988859 0.288461 0.447625 -22.990401 -0.000000 0.000000 0.000000 -0.000000 0.000000 0.000000 0.000000 0.000000 0.000000 1.162502 0.940931 0.041125 -1.801369 -1.974416 0.062388 -2.331254 3.576143 0.823220 14.239182 -0.734128 -1.036907 0.000000 0.000000 0.000000 0.000000 0.000000 0.000000 0.300647 -0.731949 -0.195908 -0.303173 0.730906 0.199762 3.329328 2.274220 -0.636280 -6.872174 -4.479260 1.238662 0.000000 0.000000 0.000000 0.000000 0.000000 0.000000 0.921073 1.681611 -22.660986 -1.091361 -1.920776 -0.741211 -6.003975 14.877738 3.293563 0.000000 0.000000 0.000000 0.288461 0.447625 -22.990401 -1.187046 -0.504651 -0.383888 1.183686 0.512485 0.373366 0.000000 0.000000 0.000000
18.454657 70.685293 364.624771 -0.006645 -0.494508 22.969177 0.199097 0.452707 -22.969993 -0.000000 0.000000 0.000000 -0.000000 0.000000 0.000000 0.000000 0.000000 0.000000 1.143029 0.711931 0.057351 -1.766792 -1.539497 0.055164 -2.605431 3.087803 0.833439 11.818988 -2.794763 -1.043546 0.000000 0.000000 0.000000 0.000000 0.000000 0.000000 0.175510 -0.810994 -0.199589 -0.178351 0.810373 0.202092 3.683262 2.556409 -0.721409 -7.655222 -6.657354 1.305229 0.000000 0.000000 0.000000 0.000000 0.000000 0.000000 0.865034 1.736506 -22.626066 -1.316420 -2.056334 -0.831086 -4.993221 14.989804 2.181205 0.000000 0.000000 0.000000 0.199097 0.452707 -22.969993 -1.199734 -0.504275 -0.387093 1.196347 0.512258 0.376465 0.000000 0.000000 0.000000
18.523862 70.677583 364.615188 0.073263 -0.468639 23.030739 0.115922 0.459948 -23.030905 -0.000000 0.000000 0.000000 -0.000000 0.000000 0.000000 0.000000 0.000000 0.000000 1.089797 0.594692 0.061559 -1.793483 -1.272739 0.077355 -2.448824 2.084066 0.667584 10.332098 -3.938605 -1.101863 0.000000 0.000000 0.000000 0.000000 0.000000 0.000000 0.450591 -0.986255 -0.267995 -0.455266 0.984105 0.275783 4.776496 3.457534 -1.003148 -9.075550 -7.829169 1.448564 0.000000 0.000000 0.000000 0.000000 0.000000 0.000000 0.750076 1.771270 -22.688787 -1.390749 -2.075567 -0.855190 -1.058992 11.510371 -1.733017 0.000000 0.000000 0.000000 0.115922 0.459948 -23.030905 -1.133528 -0.497911 -0.368992 1.130342 0.505103 0.359084 0.000000 0.000000 0.000000
18.604071 70.661033 364.617163 0.181078 -0.466619 22.880814 0.014596 0.500309 -22.880140 -0.000000 0.000000 0.000000 -0.000000 0.000000 0.000000 0.000000 0.000000 0.000000 0.999202 0.469057 0.062757 -1.837386 -1.042069 0.115158 -2.503719 2.164748 0.692883 7.421216 -3.810846 -1.056065 0.000000 0.000000 0.000000 0.000000 0.000000 0.000000 1.285704 -1.276384 -0.419119 -1.295322 1.266622 0.447760 1.260459 3.301834 -0.730255 -5.587178 -7.932622 1.401922 0.000000 0.000000 0.000000 0.000000 0.000000 0.000000 0.566017 1.798134 -22.555920 -1.377810 -1.983701 -0.827625 2.168748 8.141391 -5.014699 0.000000 0.000000 0.000000 0.014596 0.500309 -22.880140 -1.044176 -0.416083 -0.332528 1.041772 0.422067 0.324899 0.000000 0.000000 0.000000
18.700213 70.645930 364.605648 0.297230 -0.458801 22.647976 -0.097647 0.537873 -22.646328 -0.000000 0.000000 0.000000 -0.000000 0.000000 0.000000 0.000000 0.000000 0.000000 0.858791 0.276204 0.064079 -1.750467 -0.823178 0.134232 -3.124867 1.431750 0.719030 3.998333 -2.096148 -0.943435 0.000000 0.000000 0.000000 0.000000 0.000000 0.000000 3.251142 -1.735525 -0.713334 -4.134638 1.969381 1.115647 -3.352705 3.050389 -0.668069 -0.511674 -3.855082 1.569581 0.000000 0.000000 0.000000 0.000000 0.000000 0.000000 0.304618 1.775338 -22.359891 -1.286881 -1.827138 -0.770098 2.122644 7.130177 -4.437553 0.000000 0.000000 0.000000 -0.097647 0.537873 -22.646328 -0.897914 -0.287098 -0.273916 0.896543 0.291352 0.269386 0.000000 0.000000 0.000000
